<svg width="163" height="30" viewBox="0 0 163 30" fill="none" xmlns="http://www.w3.org/2000/svg">
<rect width="163" height="30" fill="#E5E5E5"/>
<rect width="375" height="13705.7" transform="translate(-106 -7815)" fill="#F2F2F2"/>
<g clip-path="url(#clip0_6901_4176)">
<path d="M43.1574 29.7998H38.0196V18.3472C39.2705 20.6882 41.0381 22.6409 43.1574 24.0227V29.7998ZM109.481 29.2328H104.344V5.78394H108.409V10.1495C108.533 9.72028 108.689 9.3031 108.875 8.90221C109.38 7.7786 110.169 6.84128 111.148 6.20434C112.155 5.57919 113.295 5.26168 114.449 5.28445C115.449 5.26935 116.44 5.48707 117.357 5.92341C118.211 6.34107 118.972 6.95822 119.589 7.73229C120.223 8.54013 120.706 9.47755 121.013 10.4914C121.352 11.6179 121.519 12.7984 121.507 13.985V14.7329C121.518 15.9204 121.365 17.1028 121.056 18.24C120.776 19.265 120.315 20.2188 119.701 21.0465C119.101 21.8444 118.342 22.4792 117.485 22.9015C116.537 23.3537 115.512 23.577 114.479 23.5567C113.373 23.5807 112.278 23.3077 111.288 22.7612C110.571 22.3487 109.951 21.754 109.482 21.026L109.481 29.2328ZM112.926 9.96158C112.32 9.95776 111.724 10.1186 111.189 10.4299C110.648 10.7479 110.194 11.222 109.876 11.8019C109.524 12.4621 109.348 13.2187 109.368 13.9847V15.0449C109.35 15.7807 109.537 16.5049 109.904 17.1186C110.248 17.6756 110.715 18.1264 111.26 18.4283C111.775 18.7212 112.346 18.8766 112.925 18.8818C113.561 18.8939 114.186 18.6927 114.718 18.3046C115.247 17.9021 115.667 17.3468 115.932 16.699C116.231 15.964 116.38 15.165 116.368 14.3589C116.386 13.5583 116.236 12.764 115.932 12.0372C115.665 11.4163 115.251 10.8874 114.732 10.5078C114.191 10.135 113.563 9.94533 112.926 9.96158ZM23.2067 29.2328H18.0686V5.78394H22.1344V10.147C22.2585 9.71843 22.4142 9.30184 22.5998 8.90136C23.1048 7.77797 23.8942 6.84072 24.8723 6.20349C25.8798 5.57824 27.0199 5.26071 28.1753 5.2836C29.1745 5.26843 30.1653 5.48615 31.083 5.92256C31.9363 6.33988 32.6971 6.95709 33.3129 7.73144C33.9472 8.539 34.4315 9.4765 34.7383 10.4906C35.0766 11.617 35.2436 12.7975 35.2328 13.9842V14.7329C35.2427 15.9204 35.0904 17.1028 34.7809 18.24C34.5011 19.2651 34.0404 20.2189 33.4256 21.0465C32.826 21.8448 32.0678 22.4795 31.2101 22.9015C30.2615 23.3537 29.2365 23.5771 28.2036 23.5567C27.0977 23.5806 26.0031 23.3076 25.0136 22.7612C24.2958 22.3485 23.6766 21.7539 23.2067 21.026V29.2328ZM26.6505 9.9613C26.0458 9.95751 25.4498 10.1183 24.9149 10.4296C24.3735 10.7481 23.92 11.2222 23.6021 11.8016C23.2505 12.4621 23.0743 13.2185 23.0941 13.9844V15.0447C23.0754 15.7803 23.2626 16.5044 23.6301 17.1183C23.9738 17.6748 24.44 18.1255 24.9849 18.428C25.5005 18.7208 26.071 18.8761 26.6507 18.8816C27.2873 18.8939 27.9124 18.6927 28.4433 18.3043C28.9737 17.9021 29.3938 17.3467 29.658 16.6987C29.9576 15.9637 30.1065 15.1647 30.0942 14.3587C30.1117 13.558 29.9624 12.7637 29.658 12.0369C29.3914 11.416 28.9765 10.8872 28.4579 10.5075C27.9167 10.1342 27.2883 9.94433 26.6505 9.9613ZM48.1547 24.1245H48.1339H48.1145H48.0919H48.0901H48.0693C47.4554 24.1285 46.8432 24.0523 46.2454 23.8977C45.2299 23.4598 44.2597 22.9028 43.3516 22.2365C43.2864 22.1645 43.2233 22.0883 43.1566 22.0033V22.09C40.6067 20.1652 38.78 17.279 38.0187 13.9728V0.799805H43.1566V8.4013C43.6079 7.74093 44.1742 7.18684 44.8221 6.77158C45.8296 6.14601 46.9697 5.82848 48.1253 5.85169H48.3241C49.3046 5.83613 50.2768 6.05386 51.1743 6.49009C52.0079 6.90662 52.7458 7.52517 53.3334 8.29982C53.9437 9.11559 54.4082 10.0518 54.7025 11.0589C55.0312 12.1871 55.1932 13.3664 55.1824 14.5514V15.2998C55.1923 16.4877 55.04 17.6704 54.7305 18.8081C54.4513 19.8334 53.9906 20.7874 53.3751 21.6146C52.7751 22.4123 52.017 23.0469 51.1596 23.4697C50.2117 23.9215 49.187 24.1447 48.1547 24.1245ZM46.6016 10.5286C45.997 10.5249 45.4007 10.6852 44.8653 10.9954L44.8453 11.0077C44.8031 11.0334 44.7595 11.0598 44.7169 11.0875C44.2605 11.3904 43.8744 11.8068 43.5893 12.3034C43.5775 12.3238 43.5636 12.3465 43.5518 12.3692C43.1999 13.0295 43.0238 13.786 43.0437 14.5519V15.611C43.025 16.3475 43.2126 17.0724 43.5808 17.6867C43.5911 17.7025 43.6021 17.7196 43.6134 17.7363C43.614 17.7381 43.6148 17.7397 43.6159 17.7411C43.6257 17.757 43.6352 17.7708 43.6449 17.7842C43.6475 17.7897 43.6507 17.7949 43.6545 17.7995C43.6588 17.8068 43.6637 17.8137 43.6681 17.8197L43.6757 17.8304C43.6821 17.8395 43.6878 17.8486 43.6937 17.8588C43.6965 17.8619 43.6991 17.8651 43.7014 17.8687L43.7055 17.8747C43.9569 18.2347 44.2623 18.5444 44.6083 18.7905C44.612 18.7946 44.6163 18.7977 44.6212 18.7999C44.6262 18.8039 44.6315 18.8077 44.6369 18.8109C44.6417 18.8141 44.6458 18.8166 44.6497 18.8197L44.6635 18.8291L44.6777 18.8387C44.6824 18.8413 44.687 18.8444 44.6913 18.8481C44.7007 18.8538 44.71 18.8598 44.7189 18.8657L44.7336 18.8753C44.8031 18.919 44.8686 18.9578 44.9338 18.9941C45.0836 19.077 45.2379 19.1499 45.3957 19.2124C45.7819 19.3657 46.189 19.4449 46.5993 19.4468C47.2358 19.4585 47.8607 19.2573 48.3918 18.8697C48.9093 18.4774 49.3218 17.9389 49.5865 17.3105L49.5932 17.2952V17.2933C49.597 17.2839 49.6012 17.2748 49.6052 17.2649C49.9057 16.5303 50.0559 15.7316 50.0451 14.9256V14.857C50.0542 14.0787 49.9052 13.3081 49.6088 12.6019C49.6063 12.5954 49.6032 12.5891 49.6004 12.583V12.5812C49.5965 12.5729 49.5922 12.5636 49.5883 12.5528C49.3275 11.9632 48.9303 11.4602 48.4368 11.0947C48.4304 11.0886 48.4235 11.0831 48.4163 11.0785L48.4096 11.074C47.8683 10.7005 47.2396 10.5109 46.6016 10.5286ZM131.642 23.6199C130.44 23.6441 129.248 23.3889 128.142 22.8712C127.166 22.4031 126.291 21.713 125.572 20.8458C124.193 19.1617 123.429 16.9725 123.428 14.7016V14.078C123.425 12.933 123.611 11.7972 123.977 10.7259C124.336 9.67305 124.872 8.70491 125.557 7.87262C126.267 7.02586 127.127 6.35151 128.085 5.89251C129.156 5.38917 130.31 5.13961 131.473 5.16001C132.256 5.15319 133.036 5.25799 133.795 5.47183C134.482 5.66913 135.136 5.98483 135.735 6.40731C136.306 6.81187 136.826 7.298 137.281 7.85306C137.732 8.4093 138.115 9.02954 138.417 9.69738C139.04 11.0767 139.36 12.5993 139.349 14.141V15.9495H128.292C128.348 16.2738 128.43 16.5921 128.536 16.9006C128.752 17.553 129.147 18.1146 129.666 18.5068C130.26 18.9046 130.947 19.0993 131.642 19.0661C132.25 19.091 132.856 18.9524 133.406 18.6621C133.833 18.4297 134.176 18.0447 134.379 17.5696H139.066C138.849 18.7117 138.389 19.7804 137.726 20.6878C137.042 21.6141 136.171 22.3509 135.184 22.8395C134.068 23.379 132.86 23.6453 131.642 23.6199ZM131.473 9.7124C130.853 9.6967 130.24 9.87529 129.708 10.2274C129.188 10.6009 128.788 11.1467 128.565 11.7867C128.434 12.1431 128.338 12.5144 128.28 12.8939H134.516C134.463 12.5158 134.376 12.1448 134.254 11.7867C134.056 11.1666 133.692 10.6281 133.209 10.2433C132.694 9.87301 132.087 9.68776 131.473 9.7124ZM63.5525 23.5575H63.3266C62.5208 23.5731 61.7203 23.4102 60.9725 23.0782C60.2922 22.7608 59.6908 22.2675 59.219 21.6398C58.7014 20.9265 58.3295 20.0981 58.1285 19.2112C57.8709 18.0842 57.7488 16.9247 57.7654 15.7624V5.78394H62.9025V15.9175C62.8894 16.2591 62.9376 16.6001 63.044 16.9212C63.1506 17.2423 63.3133 17.537 63.5229 17.7884C63.7398 18.0302 64 18.219 64.2869 18.3428C64.5739 18.4666 64.881 18.5225 65.1887 18.5071C65.5004 18.5204 65.8113 18.4635 66.1025 18.3399C66.3937 18.2164 66.6591 18.0287 66.8826 17.7884C67.1036 17.5313 67.2751 17.2275 67.3868 16.895C67.4984 16.5626 67.5479 16.2087 67.5321 15.8545V5.78394H72.6689V22.9962H68.6038V18.9484C68.522 19.3546 68.4137 19.7536 68.2797 20.1424C67.9474 21.1905 67.3188 22.0927 66.4868 22.7159C65.6025 23.3028 64.5836 23.5952 63.5525 23.5575ZM5.61964 23.4325C4.61875 23.4522 3.62615 23.2289 2.71199 22.7782C1.89914 22.3719 1.20849 21.7172 0.721541 20.8914C0.22703 20.0075 -0.0231531 18.9833 0.00168529 17.9446C0.00168529 16.6613 0.314778 15.6068 0.932491 14.8099C1.62043 13.9651 2.51192 13.3541 3.50268 13.0484C4.72144 12.6556 5.98651 12.4665 7.25593 12.4871H9.71163C9.70317 11.7325 9.53711 11.1607 9.21841 10.7885C8.89094 10.4055 8.34585 10.2113 7.59545 10.2113C7.2644 10.2113 6.77679 10.221 6.01408 10.2425C5.32528 10.2629 4.58464 10.2944 3.8132 10.3358C2.99736 10.3795 2.30471 10.4208 1.69572 10.4619V5.72044C2.20334 5.67509 2.74433 5.63341 3.3043 5.59628C3.91662 5.5546 4.56744 5.52285 5.23879 5.50216C5.9217 5.48119 6.52658 5.4707 7.08655 5.4707C8.47992 5.43151 9.86662 5.69653 11.167 6.25055C12.2234 6.71498 13.1218 7.53296 13.7361 8.58982C14.3264 9.6248 14.6251 10.9571 14.6251 12.5503V22.9962H10.5598V19.7904C10.4477 20.1724 10.3016 20.5411 10.1235 20.8911C9.71659 21.6929 9.109 22.348 8.37357 22.778C7.51769 23.2408 6.57209 23.4657 5.61964 23.4325ZM7.2567 15.4194C6.67328 15.3776 6.0975 15.5842 5.64761 15.9965C5.45896 16.1939 5.3109 16.4337 5.21349 16.6999C5.11608 16.9659 5.07158 17.252 5.08302 17.5387C5.07365 17.8209 5.11921 18.102 5.21661 18.363C5.31402 18.624 5.46098 18.859 5.64761 19.0519C6.09783 19.4633 6.67312 19.6694 7.25619 19.6282C7.66877 19.6365 8.07811 19.5463 8.45621 19.3637C8.82398 19.1652 9.12547 18.8432 9.31747 18.4438C9.57205 17.8819 9.70749 17.2633 9.71344 16.6349V15.4194H7.2567ZM100.9 22.9962H95.7623V13.0461C95.7839 12.3317 95.5786 11.6314 95.1833 11.0657C94.9834 10.8005 94.7294 10.5906 94.443 10.4528C94.1567 10.315 93.8451 10.2531 93.5326 10.272C93.2165 10.2548 92.9013 10.3173 92.6096 10.4549C92.3187 10.5924 92.0602 10.8013 91.8531 11.0657C91.4344 11.6439 91.2191 12.3695 91.2461 13.1091V22.9962H86.107V13.0461C86.1285 12.3319 85.9241 11.6316 85.529 11.0657C85.3287 10.8003 85.075 10.5903 84.7882 10.4525C84.5014 10.3147 84.1894 10.2529 83.877 10.272C83.561 10.2548 83.2455 10.3174 82.9546 10.455C82.6637 10.5925 82.4049 10.8014 82.1979 11.0657C81.7793 11.6438 81.5638 12.3694 81.591 13.1091V22.9962H76.4527V5.78394H80.518V10.2746C80.6053 9.75907 80.7325 9.25281 80.8981 8.76133C81.2321 7.69365 81.8586 6.76722 82.6907 6.11051C83.5563 5.49588 84.5705 5.18608 85.5991 5.22209H85.8259C86.859 5.1825 87.8782 5.49269 88.7471 6.11107C89.5727 6.77156 90.1934 7.69726 90.5248 8.7619C90.5275 8.76927 90.5302 8.77635 90.5329 8.78372V8.78571L90.5392 8.80328C90.541 8.79676 90.5428 8.79052 90.5455 8.78457V8.78315C90.5473 8.77635 90.55 8.76955 90.5527 8.76246C90.8859 7.69479 91.5127 6.76836 92.3448 6.11164C93.2102 5.49699 94.2242 5.18699 95.2526 5.22265H95.4796C96.5206 5.18581 97.5481 5.49554 98.4288 6.11164C99.2708 6.76746 99.9111 7.69257 100.263 8.76246C100.685 9.93153 100.898 11.4271 100.898 13.2057V22.9962H100.9ZM147.196 22.9962H142.059V5.78394H146.124V11.86C146.185 11.0501 146.333 10.2509 146.562 9.47882C146.765 8.80445 147.059 8.16823 147.435 7.59226C147.866 6.93128 148.439 6.40023 149.104 6.04786C149.816 5.6925 150.591 5.51665 151.372 5.53306H151.993V10.3987H150.808C149.664 10.3987 148.767 10.7446 148.14 11.4269C147.513 12.1092 147.194 13.1073 147.194 14.3892V22.9962H147.196ZM160.166 9.5426C159.788 9.54316 159.414 9.45887 159.066 9.29484C158.728 9.14022 158.421 8.91339 158.161 8.62736C157.903 8.34133 157.698 8.00171 157.558 7.62797C157.409 7.24374 157.333 6.83024 157.333 6.41242C157.333 5.99459 157.409 5.5811 157.558 5.19686C157.698 4.82316 157.903 4.48361 158.161 4.19775C158.42 3.91189 158.728 3.68533 159.066 3.53113C159.414 3.36716 159.789 3.28263 160.167 3.28263C160.545 3.28263 160.92 3.36716 161.267 3.53113C161.605 3.6868 161.912 3.91321 162.172 4.19787C162.429 4.48523 162.634 4.82432 162.776 5.19686C162.923 5.5813 163 5.99472 163 6.41242C163 6.83012 162.923 7.24353 162.776 7.62797C162.493 8.38237 161.95 8.98183 161.267 9.29484C160.92 9.45907 160.545 9.54337 160.166 9.5426ZM160.166 3.84183C159.855 3.84076 159.547 3.91033 159.262 4.04622C158.702 4.30302 158.257 4.79469 158.025 5.41344C157.902 5.72926 157.839 6.06913 157.839 6.41256C157.839 6.75598 157.902 7.09585 158.025 7.41168C158.257 8.03042 158.702 8.52204 159.262 8.77862C159.548 8.91348 159.855 8.983 160.167 8.983C160.478 8.983 160.785 8.91348 161.071 8.77862C161.631 8.52156 162.076 8.03015 162.309 7.41168C162.432 7.09585 162.495 6.75598 162.495 6.41256C162.495 6.06913 162.432 5.72927 162.309 5.41344C162.076 4.79495 161.631 4.30346 161.071 4.04622C160.786 3.91042 160.478 3.84067 160.166 3.84183ZM161.352 8.20145H160.871C160.853 8.20275 160.834 8.19766 160.819 8.1869C160.803 8.17613 160.791 8.16021 160.784 8.14135L160.17 6.8657H159.679V8.08891C159.68 8.10377 159.677 8.11859 159.673 8.13242C159.667 8.14625 159.66 8.15876 159.65 8.16914C159.64 8.17967 159.629 8.18794 159.617 8.19345C159.604 8.19896 159.591 8.20159 159.577 8.20117H159.154C159.14 8.20147 159.127 8.19879 159.114 8.19328C159.102 8.18777 159.091 8.17957 159.081 8.16914C159.072 8.15872 159.065 8.14619 159.059 8.13236C159.055 8.11854 159.052 8.10373 159.053 8.08891V4.73563C159.052 4.72082 159.055 4.70603 159.059 4.6922C159.065 4.67839 159.072 4.66585 159.081 4.65541C159.091 4.64505 159.102 4.63694 159.114 4.63158C159.127 4.62622 159.14 4.62372 159.154 4.62423H160.084C160.287 4.61478 160.49 4.64354 160.685 4.70927C160.861 4.77932 161.011 4.91359 161.109 5.08998C161.213 5.27908 161.266 5.49723 161.263 5.71874C161.265 5.92119 161.218 6.12067 161.128 6.29675C161.043 6.46203 160.916 6.59527 160.762 6.67889C160.775 6.7027 160.784 6.72056 160.791 6.73558L161.438 8.03959C161.447 8.05618 161.452 8.07501 161.451 8.09408C161.451 8.11317 161.446 8.13176 161.437 8.14788C161.429 8.16498 161.416 8.17918 161.402 8.18874C161.386 8.19831 161.369 8.20253 161.352 8.20145ZM159.68 5.25327V6.23552H160.193C160.252 6.2394 160.311 6.22996 160.366 6.20778C160.422 6.1856 160.472 6.15115 160.515 6.10655C160.596 6.00521 160.637 5.87271 160.63 5.73802C160.637 5.65487 160.623 5.57099 160.59 5.49615C160.556 5.42131 160.504 5.35861 160.439 5.31535C160.322 5.26408 160.196 5.24248 160.07 5.25213L159.68 5.25327Z" fill="#363636"/>
</g>
<defs>
<clipPath id="clip0_6901_4176">
<rect width="375" height="29" fill="white" transform="translate(-106 0.799805)"/>
</clipPath>
</defs>
</svg>
