<svg width="93" height="89" viewBox="0 0 93 89" fill="none" xmlns="http://www.w3.org/2000/svg">
<rect x="0.527344" y="0.945557" width="92" height="88" rx="44" fill="#F5F5F5"/>
<path fill-rule="evenodd" clip-rule="evenodd" d="M46.5277 27.6123C36.9547 27.6123 29.1943 35.3727 29.1943 44.9456C29.1943 54.5186 36.9547 62.279 46.5277 62.279C56.1006 62.279 63.861 54.5186 63.861 44.9456C63.861 35.3727 56.1006 27.6123 46.5277 27.6123ZM27.1943 44.9456C27.1943 34.2681 35.8502 25.6123 46.5277 25.6123C57.2052 25.6123 65.861 34.2681 65.861 44.9456C65.861 55.6231 57.2052 64.279 46.5277 64.279C35.8502 64.279 27.1943 55.6231 27.1943 44.9456ZM41.4725 36.7306C41.7976 36.5566 42.1922 36.5757 42.499 36.7803L53.499 44.1136C53.7772 44.2991 53.9443 44.6113 53.9443 44.9456C53.9443 45.28 53.7772 45.5922 53.499 45.7777L42.499 53.111C42.1922 53.3156 41.7976 53.3347 41.4725 53.1606C41.1473 52.9866 40.9443 52.6478 40.9443 52.279V37.6123C40.9443 37.2435 41.1473 36.9046 41.4725 36.7306ZM42.9443 39.4808V50.4105L51.1416 44.9456L42.9443 39.4808Z" fill="#292929"/>
</svg>
