<svg width="18" height="18" viewBox="0 0 18 18" fill="none" xmlns="http://www.w3.org/2000/svg">
<g id="vuesax/outline/directbox-receive">
<g id="directbox-receive">
<path id="Vector" d="M9 6.56253C8.925 6.56253 8.8575 6.54753 8.7825 6.51753C8.5725 6.43503 8.4375 6.22503 8.4375 6.00003V1.50003C8.4375 1.19253 8.6925 0.937531 9 0.937531C9.3075 0.937531 9.5625 1.19253 9.5625 1.50003V4.64253L10.1025 4.10253C10.32 3.88503 10.68 3.88503 10.8975 4.10253C11.115 4.32003 11.115 4.68003 10.8975 4.89753L9.3975 6.39753C9.2925 6.50253 9.1425 6.56253 9 6.56253Z" fill="#ADADAD"/>
<path id="Vector_2" d="M9.00008 6.56249C8.85758 6.56249 8.71508 6.50999 8.60258 6.39749L7.10258 4.89749C6.88508 4.67999 6.88508 4.31999 7.10258 4.10249C7.32008 3.88499 7.68008 3.88499 7.89758 4.10249L9.39758 5.60249C9.61508 5.81999 9.61508 6.17999 9.39758 6.39749C9.28508 6.50999 9.14258 6.56249 9.00008 6.56249Z" fill="#ADADAD"/>
<path id="Vector_3" d="M12 17.0625H6C1.6875 17.0625 1.6875 14.775 1.6875 12.75V12C1.6875 10.3275 1.6875 8.43753 5.25 8.43753C6.1425 8.43753 6.4725 8.65503 6.9375 9.00003C6.96 9.02253 6.99 9.03753 7.0125 9.06753L7.7775 9.87753C8.4225 10.56 9.5925 10.56 10.2375 9.87753L11.0025 9.06753C11.025 9.04503 11.0475 9.02253 11.0775 9.00003C11.5425 8.64753 11.8725 8.43753 12.765 8.43753C16.3275 8.43753 16.3275 10.3275 16.3275 12V12.75C16.3125 15.615 14.865 17.0625 12 17.0625ZM5.25 9.56253C2.8125 9.56253 2.8125 10.3275 2.8125 12V12.75C2.8125 14.805 2.8125 15.9375 6 15.9375H12C14.235 15.9375 15.1875 14.985 15.1875 12.75V12C15.1875 10.3275 15.1875 9.56253 12.75 9.56253C12.21 9.56253 12.0975 9.63003 11.775 9.87003L11.0475 10.6425C10.5075 11.2125 9.78 11.5275 9 11.5275C8.22 11.5275 7.4925 11.2125 6.9525 10.6425L6.225 9.87003C5.9025 9.63003 5.79 9.56253 5.25 9.56253Z" fill="#ADADAD"/>
<path id="Vector_4" d="M3.75 9.5625C3.4425 9.5625 3.1875 9.3075 3.1875 9V6C3.1875 4.545 3.1875 2.7375 5.9475 2.475C6.255 2.445 6.5325 2.67 6.5625 2.985C6.5925 3.2925 6.3675 3.57 6.0525 3.6C4.3125 3.7575 4.3125 4.4625 4.3125 6V9C4.3125 9.3075 4.0575 9.5625 3.75 9.5625Z" fill="#ADADAD"/>
<path id="Vector_5" d="M14.2501 9.56251C13.9426 9.56251 13.6876 9.30751 13.6876 9.00001V6.00001C13.6876 4.46251 13.6876 3.75751 11.9476 3.59251C11.6401 3.56251 11.4151 3.28501 11.4451 2.97751C11.4751 2.67001 11.7451 2.43751 12.0601 2.47501C14.8201 2.73751 14.8201 4.54501 14.8201 6.00001V9.00001C14.8126 9.30751 14.5576 9.56251 14.2501 9.56251Z" fill="#ADADAD"/>
</g>
</g>
</svg>
