<svg width="93" height="89" viewBox="0 0 93 89" fill="none" xmlns="http://www.w3.org/2000/svg">
<rect x="0.0546875" y="0.94545" width="92" height="88" rx="44" fill="#F5F5F5"/>
<path fill-rule="evenodd" clip-rule="evenodd" d="M47.76 23.1339C44.6871 24.2314 42.3246 26.5348 40.5003 30.2121C40.0731 31.0735 39.6186 32.1416 38.942 33.8749C37.9063 36.5277 37.6497 36.9267 37.0174 36.8666C36.571 36.8241 36.3792 36.5236 36.3809 35.8694C36.3825 35.244 36.626 34.3398 37.066 33.3254C37.1184 33.2045 37.1201 33.1535 37.0734 33.1098C37.0049 33.0459 36.8471 33.1967 36.047 34.0906C32.4441 38.1159 30.1338 42.9593 29.2328 48.3761C29.0674 49.371 29.0013 51.4514 29.1031 52.4633C29.3724 55.1411 30.3044 57.6265 31.853 59.7971C32.4962 60.6986 33.0334 61.3272 33.7879 62.0612C37.7214 65.888 43.3432 67.6087 48.9842 66.7127C52.5256 66.1502 55.8061 64.5176 58.3311 62.0612C61.0275 59.4379 62.6483 56.1179 63.0157 52.4651C63.0882 51.7444 63.0534 49.0176 62.9621 48.2539C62.5834 45.0901 61.7061 42.0185 60.3386 39.0683C59.7104 37.7131 58.4581 35.5265 58.2347 35.3948C58.1003 35.3157 58.0772 35.3925 58.1518 35.6697C58.1902 35.8123 58.2207 36.1271 58.2195 36.3692C58.2159 37.0776 57.9616 37.4914 57.4504 37.6204C56.9287 37.7519 56.3684 37.5417 56.109 37.1171C55.9296 36.8237 55.8099 36.3772 55.561 35.073C55.3254 33.8385 55.0874 33.103 54.6669 32.3099C54.2758 31.5723 53.8072 30.9662 53.1692 30.3734C52.7065 29.9434 51.841 29.302 51.7234 29.302C51.634 29.302 51.6386 29.3364 51.7924 29.827C51.9567 30.351 52.0137 31.1615 51.924 31.6972C51.7715 32.6071 51.2993 33.0778 50.5418 33.0743C49.4699 33.0695 48.1545 31.6424 47.4997 29.7739C46.7654 27.6786 47.0123 25.4106 48.1857 23.4714C48.4198 23.0846 48.4637 22.9428 48.3486 22.9455C48.3127 22.9463 48.0478 23.0311 47.76 23.1339ZM47.5507 43.7797C49.628 44.1864 51.3974 45.2906 52.5537 46.9015C53.1564 47.7413 53.5405 48.598 53.7849 49.6477C53.9324 50.2814 53.9196 51.8354 53.7612 52.518C53.0929 55.3993 50.7213 57.638 47.68 58.2584C45.0975 58.7853 42.35 58.0393 40.4653 56.2995C39.2779 55.2033 38.4884 53.7832 38.2049 52.2335C38.1107 51.7182 38.0985 51.5052 38.1233 50.7971C38.1753 49.3051 38.5787 48.1302 39.4606 46.9015C40.7303 45.1325 42.7341 43.9813 45.0654 43.6813C45.6193 43.6101 46.9542 43.6628 47.5507 43.7797Z" fill="#292929"/>
</svg>
