<svg width="75" height="42" viewBox="0 0 75 42" fill="none" xmlns="http://www.w3.org/2000/svg">
<path d="M31.9522 23.4023V30.1882C31.9522 31.2276 32.5415 32.5303 34.6134 32.5303C34.6587 32.5303 34.7086 32.5303 34.7584 32.5303C34.9987 33.9854 35.4793 35.2789 35.502 35.3389C35.502 35.3389 35.502 35.3528 35.502 35.3574C35.7876 36.1981 36.1775 36.9927 36.6535 37.7272C36.6127 37.8888 36.522 38.0367 36.386 38.1383C35.434 38.882 33.6749 39.1269 32.197 39.1269C27.7949 39.1269 24.6213 36.9603 24.6213 31.32V23.4115C24.6213 22.9819 24.2768 22.6308 23.8552 22.6308H22.7535C22.681 22.6308 22.6175 22.677 22.5903 22.7417L16.3203 38.6926C16.216 38.9559 15.9667 39.1222 15.6856 39.1222H9.79193C9.51538 39.1222 9.26604 38.9559 9.15724 38.6926L0.552478 16.8103C0.366601 16.353 0.697532 15.8449 1.18263 15.8449H7.13071C7.41179 15.8449 7.66569 16.025 7.76996 16.2929L12.1222 28.2758C12.3489 28.8763 13.1785 28.8763 13.4007 28.2758L17.7121 16.2929C17.8164 16.0204 18.0657 15.8449 18.3559 15.8449H23.8642C24.2859 15.8449 24.6259 15.4984 24.6259 15.0688V11.3224C24.6259 10.8928 24.975 10.5371 25.3966 10.5371H31.186C31.6076 10.5371 31.9522 10.8882 31.9522 11.3178V15.1104C31.9522 15.5123 32.2741 15.8449 32.673 15.8449H36.9346C36.5492 16.8888 36.3452 18.0298 36.3452 19.2401C36.3452 20.5197 36.5628 21.6423 36.9346 22.6262H32.7138C32.2922 22.6262 31.9522 22.9727 31.9522 23.4023Z" fill="#1A1A1A"/>
<path d="M73.8111 10.5322H67.8675C67.4867 10.5322 67.1784 10.851 67.1784 11.2344V18.3853H67.0515C66.8838 17.9973 64.8119 15.8446 60.9583 15.8446C59.766 15.8446 58.5329 16.0709 57.3541 16.5283L57.005 16.6761C56.869 16.7361 56.733 16.7916 56.6061 16.8562C56.4565 16.9255 56.3069 17.0041 56.1663 17.0826C56.0258 17.1519 55.8943 17.2304 55.7628 17.3136C55.6359 17.3875 55.5135 17.4614 55.3911 17.5492C55.3639 17.5676 55.3321 17.5815 55.3049 17.6092C55.2007 17.6739 55.1009 17.7478 54.9966 17.8217C54.6158 18.0989 54.2531 18.3991 53.9131 18.7317C53.5368 19.0967 53.1832 19.4986 52.8659 19.9236C52.757 20.0668 52.6482 20.2146 52.553 20.367C52.1133 21.023 51.7325 21.7436 51.4287 22.5382C54.43 23.827 56.4927 25.2359 57.7712 26.9405C58.0206 24.1226 60.1423 22.455 62.5269 22.455C65.1474 22.455 67.3462 24.3074 67.3462 27.4994C67.3462 30.6915 65.1474 32.5393 62.5269 32.5393C61.3573 32.5393 60.2466 32.1374 59.3942 31.3936C59.4214 31.7078 59.435 32.0311 59.435 32.3591C59.435 34.6827 58.7731 36.7799 57.4992 38.5076C58.6326 38.9233 59.8113 39.1312 60.9583 39.1312C64.8119 39.1312 66.8838 36.9786 67.0515 36.5905H67.1784V37.9995C67.1784 38.3875 67.4867 38.7016 67.8675 38.7016H73.8111C74.1919 38.7016 74.5002 38.3829 74.5002 37.9995V11.2482C74.5002 10.8602 74.1919 10.5461 73.8111 10.5461V10.5322Z" fill="#1A1A1A"/>
<path d="M58.274 32.3455C58.274 35.168 57.2086 37.3483 55.5856 38.9143C53.4276 41.0023 50.2767 42.0001 47.3571 42.0001C42.2885 42.0001 37.9816 39.076 36.5898 34.9324C36.5898 34.9231 36.5898 34.9185 36.5807 34.9093C36.5173 34.7291 36.0458 33.4079 35.8508 32.0452C35.801 31.7126 36.0639 31.417 36.3903 31.417H42.021C42.2069 31.417 42.3837 31.5186 42.488 31.6803L42.6648 31.9713L42.7237 32.0591C43.5806 33.6435 44.9089 35.1911 47.2301 35.1911C48.7081 35.1911 50.0636 34.5674 50.4309 33.0984C50.4943 32.8444 50.5306 32.5672 50.5306 32.2577C50.5306 31.4216 50.3085 30.8257 49.6239 30.2621C49.1071 29.8464 48.3318 29.4445 47.1894 28.9825L45.326 28.248C41.4362 26.6543 37.5011 24.4508 37.5011 19.2355C37.5011 14.0201 41.9848 10.5278 47.271 10.5278C51.46 10.5278 54.3887 12.5742 56.1749 15.0133C56.3744 15.2905 56.2838 15.6924 55.9755 15.8402C54.9282 16.3576 53.958 17.0366 53.1147 17.8543C52.7475 18.2146 52.3622 18.635 51.9859 19.1246L51.8136 19.351C51.6685 19.5311 51.3965 19.5219 51.2651 19.3279C51.2152 19.2586 51.1608 19.1893 51.12 19.1292C51.0973 19.1061 51.0837 19.0784 51.061 19.0599C51.0248 19.0091 50.9885 18.9676 50.9568 18.9352C50.9069 18.8706 50.8752 18.8382 50.8752 18.8382C49.8506 17.6649 48.7444 17.2029 47.5702 17.2029C46.0061 17.2029 44.8183 17.8958 44.8183 19.3556C44.8183 20.4781 45.453 21.3835 48.4995 22.5938L49.9685 23.1851L50.5306 23.4115C56.0752 25.6935 58.274 28.2388 58.274 32.3362V32.3455Z" fill="#00A99D"/>
<path d="M21.6745 1.17773H22.2503C22.2503 1.17773 22.2866 1.19159 22.2956 1.21007L23.5605 4.10184C23.5786 4.14342 23.633 4.14342 23.6512 4.10184L24.9206 1.21007C24.9206 1.21007 24.9478 1.17773 24.9659 1.17773H25.5417C25.5689 1.17773 25.5916 1.20083 25.5916 1.22855V4.92872C25.5916 4.95644 25.5689 4.97954 25.5417 4.97954H25.0475C25.0203 4.97954 24.9977 4.95644 24.9977 4.92872V2.35569H24.9705L23.8371 4.95182C23.8371 4.95182 23.8098 4.98416 23.7917 4.98416H23.4154C23.4154 4.98416 23.3791 4.9703 23.3701 4.95182L22.2412 2.36031H22.214V4.93334C22.214 4.96106 22.1914 4.98416 22.1642 4.98416H21.67C21.6428 4.98416 21.6201 4.96106 21.6201 4.93334V1.23317C21.6201 1.20545 21.6428 1.18235 21.67 1.18235L21.6745 1.17773Z" fill="black"/>
<path d="M28.3165 1.17796H30.275C30.3022 1.17796 30.3249 1.20106 30.3249 1.22877V1.69072C30.3249 1.71843 30.3022 1.74153 30.275 1.74153H28.9104C28.8832 1.74153 28.8605 1.76463 28.8605 1.79234V2.74395C28.8605 2.77167 28.8832 2.79476 28.9104 2.79476H30.0483C30.0755 2.79476 30.0982 2.81786 30.0982 2.84558V3.28905C30.0982 3.31676 30.0755 3.33986 30.0483 3.33986H28.9104C28.8832 3.33986 28.8605 3.36296 28.8605 3.39067V4.36538C28.8605 4.39309 28.8832 4.41619 28.9104 4.41619H30.3249C30.3521 4.41619 30.3747 4.43929 30.3747 4.467V4.92895C30.3747 4.95667 30.3521 4.97976 30.3249 4.97976H28.3165C28.2893 4.97976 28.2666 4.95667 28.2666 4.92895V1.22877C28.2666 1.20106 28.2893 1.17796 28.3165 1.17796ZM29.6539 0H30.0166C30.0574 0 30.08 0.0461945 30.0574 0.0785306L29.5995 0.813023C29.5995 0.813023 29.5723 0.836119 29.5587 0.836119H29.2096C29.1688 0.836119 29.1461 0.794544 29.1688 0.757589L29.6131 0.0230969C29.6131 0.0230969 29.6403 0 29.6539 0Z" fill="black"/>
<path d="M33.7294 1.73691H32.8907C32.8635 1.73691 32.8408 1.71382 32.8408 1.6861V1.22415C32.8408 1.19644 32.8635 1.17334 32.8907 1.17334H35.2663C35.2935 1.17334 35.3162 1.19644 35.3162 1.22415V1.6861C35.3162 1.71382 35.2935 1.73691 35.2663 1.73691H34.4276C34.4004 1.73691 34.3777 1.76001 34.3777 1.78773V4.92433C34.3777 4.95205 34.3551 4.97514 34.3279 4.97514H33.8337C33.8065 4.97514 33.7838 4.95205 33.7838 4.92433V1.78773C33.7838 1.76001 33.7611 1.73691 33.7339 1.73691H33.7294Z" fill="black"/>
<path d="M37.542 3.07658C37.542 1.90786 38.4215 1.12256 39.4506 1.12256C40.4798 1.12256 41.3593 1.90786 41.3593 3.07658C41.3593 4.2453 40.4752 5.03061 39.4506 5.03061C38.4261 5.03061 37.542 4.2453 37.542 3.07658ZM39.4506 4.45318C40.1443 4.45318 40.7472 3.9127 40.7472 3.07658C40.7472 2.24046 40.1443 1.69999 39.4506 1.69999C38.757 1.69999 38.154 2.24046 38.154 3.07658C38.154 3.9127 38.757 4.45318 39.4506 4.45318Z" fill="black"/>
<path d="M43.9893 1.22855C43.9893 1.20083 44.0119 1.17773 44.0391 1.17773H45.2315C46.2923 1.17773 47.0494 1.9538 47.0494 3.08095C47.0494 4.20809 46.2923 4.98416 45.2315 4.98416H44.0391C44.0119 4.98416 43.9893 4.96106 43.9893 4.93334V1.23317V1.22855ZM45.2088 4.40673C46.0022 4.40673 46.4328 3.87087 46.4328 3.08095C46.4328 2.29102 46.0022 1.75055 45.2088 1.75055H44.633C44.6058 1.75055 44.5832 1.77364 44.5832 1.80136V4.35591C44.5832 4.38363 44.6058 4.40673 44.633 4.40673H45.2088Z" fill="black"/>
<path d="M49.5654 3.07658C49.5654 1.90786 50.4449 1.12256 51.4741 1.12256C52.5032 1.12256 53.3827 1.90786 53.3827 3.07658C53.3827 4.2453 52.4987 5.03061 51.4741 5.03061C50.4495 5.03061 49.5654 4.2453 49.5654 3.07658ZM51.4741 4.45318C52.1677 4.45318 52.7707 3.9127 52.7707 3.07658C52.7707 2.24046 52.1677 1.69999 51.4741 1.69999C50.7804 1.69999 50.1775 2.24046 50.1775 3.07658C50.1775 3.9127 50.7804 4.45318 51.4741 4.45318Z" fill="black"/>
</svg>
