<svg width="85" height="17" viewBox="0 0 85 17" fill="none" xmlns="http://www.w3.org/2000/svg">
<g id="logo-ready-to-go 2" clip-path="url(#clip0_630_969)">
<g id="Camada_1-2">
<g id="Camada_2-2">
<g id="Camada_1-3">
<path id="Caminho_19854" d="M45.2655 3.73008L41.0726 13.5653C40.1772 15.675 38.7375 16.1725 37.4106 16.1725C36.8893 16.1822 36.3738 16.0838 35.8927 15.8852C35.6082 15.7502 35.3046 15.54 35.4363 15.0598L35.759 13.8912C35.8717 13.5074 36.0626 13.3358 36.6125 13.5074C36.813 13.5788 37.0268 13.6115 37.2387 13.6038C37.7008 13.6443 38.1342 13.3705 38.3003 12.9327L38.8674 11.7024L35.2053 3.72815C34.959 3.19011 35.3199 2.84491 35.8698 2.84491H37.5595C38.1094 2.84491 38.413 3.17082 38.6039 3.72815L40.4445 8.5956L42.2239 3.72815C42.4149 3.17275 42.7184 2.84491 43.2874 2.84491H44.5972C45.1509 2.84491 45.4908 3.19011 45.2636 3.72815L45.2655 3.73008Z" fill="white"/>
<path id="Caminho_19855" d="M53.208 7.62944C53.208 7.18011 53.2653 6.7327 53.3837 6.2988C53.6051 5.47341 54.0366 4.72324 54.6343 4.11963C54.9283 3.82265 55.2605 3.56616 55.6214 3.35596C55.9899 3.1419 56.3832 2.97605 56.7937 2.8642C57.2214 2.74849 57.6643 2.68871 58.1092 2.69064C59.4018 2.68292 60.6448 3.1959 61.5612 4.11577C62.0042 4.56511 62.3593 5.09543 62.6056 5.67976C62.8653 6.29494 62.9951 6.9564 62.9894 7.62365C62.9894 8.07106 62.9321 8.51846 62.8137 8.95044C62.7011 9.36506 62.535 9.76425 62.3211 10.1364C61.4524 11.6522 59.8448 12.5798 58.1111 12.5721C57.6682 12.5721 57.2252 12.5162 56.7956 12.4005C55.566 12.0668 54.5178 11.255 53.8763 10.1442C53.6624 9.77197 53.4982 9.3747 53.3837 8.95815C53.2653 8.52425 53.2042 8.07684 53.2061 7.62751L53.208 7.62944ZM55.9269 7.62944C55.923 7.94571 55.9746 8.26005 56.0758 8.55896C56.1713 8.83473 56.3164 9.08929 56.5073 9.3072C56.6963 9.51934 56.9273 9.68904 57.1851 9.80668C57.4677 9.93203 57.7732 9.99567 58.0806 9.99181C58.3822 9.99567 58.6801 9.93396 58.955 9.80668C59.209 9.68904 59.4343 9.51934 59.6176 9.3072C59.8028 9.08736 59.946 8.8328 60.0338 8.55896C60.2285 7.95921 60.2285 7.31124 60.0338 6.71149C59.9421 6.43186 59.8008 6.17152 59.6176 5.94396C59.2395 5.48113 58.6744 5.21886 58.0806 5.23043C57.7713 5.22657 57.4658 5.29214 57.1851 5.42135C56.9254 5.54477 56.6944 5.72411 56.5073 5.94396C56.3183 6.16959 56.1732 6.42993 56.0777 6.70956C55.9746 7.00462 55.923 7.31703 55.925 7.62944H55.9269Z" fill="white"/>
<path id="Caminho_19856" d="M75.2202 7.6196C75.2202 7.17027 75.2775 6.72286 75.3959 6.28896C75.6174 5.4655 76.0489 4.71533 76.6465 4.11172C76.9405 3.81474 77.2727 3.55825 77.6336 3.34805C78.0021 3.13399 78.3954 2.97007 78.8059 2.85822C79.2336 2.74058 79.6765 2.68273 80.1214 2.68466C81.414 2.67694 82.657 3.18991 83.5734 4.10979C84.0183 4.55913 84.3715 5.08945 84.6178 5.67378C84.8775 6.28896 85.0073 6.95042 85.0016 7.61767C85.0016 8.06508 84.9443 8.51248 84.8279 8.94446C84.7152 9.35908 84.5491 9.75634 84.3372 10.1285C83.4665 11.6405 81.8608 12.5661 80.129 12.5584C79.6861 12.5584 79.2431 12.5025 78.8135 12.3868C77.5839 12.0531 76.5338 11.2432 75.8942 10.1305C75.4551 9.36872 75.2259 8.50091 75.2279 7.6196H75.2221H75.2202ZM77.9372 7.6196C77.9333 7.93587 77.9849 8.25021 78.0861 8.54719C78.1796 8.82296 78.3267 9.07752 78.5176 9.29544C78.7066 9.50757 78.9376 9.6792 79.1954 9.79684C79.478 9.92219 79.7835 9.98583 80.0909 9.98197C80.3925 9.98583 80.6904 9.92412 80.9653 9.79684C81.2193 9.6792 81.4446 9.5095 81.6279 9.29544C81.815 9.07559 81.9563 8.82103 82.0441 8.54719C82.2388 7.94744 82.2388 7.3014 82.0441 6.70165C81.9524 6.42202 81.8111 6.16168 81.6279 5.93412C81.2498 5.47129 80.6847 5.20902 80.0909 5.22059C79.7816 5.21673 79.4761 5.2823 79.1954 5.41151C78.9357 5.53493 78.7047 5.71428 78.5176 5.93412C78.3286 6.15975 78.1816 6.42009 78.0861 6.70165C77.9849 6.99671 77.9353 7.30719 77.9372 7.6196Z" fill="white"/>
<path id="Caminho_19857" d="M26.5103 3.12255C26.4759 3.04734 26.4263 2.9837 26.3614 2.93356C26.3079 2.87956 26.2411 2.84292 26.1666 2.82942C26.1036 2.81592 26.0387 2.80821 25.9719 2.80628H24.8626C24.7862 2.80435 24.7079 2.81013 24.6315 2.82556C24.58 2.83713 24.5303 2.8622 24.4941 2.90077C24.4482 2.95091 24.4139 3.00877 24.3891 3.07433C24.3566 3.14954 24.3146 3.25368 24.2669 3.37517L24.2115 3.54681C23.9346 3.35589 23.6387 3.1939 23.3294 3.06276C22.726 2.80821 22.0807 2.68093 21.4277 2.68671C21.0115 2.68671 20.5972 2.73492 20.1924 2.83713L20.1179 2.85642C19.9385 2.90463 19.7628 2.96248 19.591 3.03191H19.5833L19.4974 3.06855C19.3084 3.14762 19.1232 3.24018 18.9456 3.34239C18.5848 3.55066 18.2525 3.80715 17.9585 4.10413C17.3609 4.70774 16.9294 5.45792 16.7079 6.28137C16.475 7.15111 16.475 8.06906 16.7079 8.94073C16.7308 9.02365 16.7556 9.10465 16.7824 9.18564C16.79 9.21071 16.7996 9.23771 16.8072 9.26085C17.3284 10.7921 18.5695 11.9626 20.1198 12.3811C20.5475 12.4987 20.9905 12.5566 21.4334 12.5547C21.5175 12.5547 21.6015 12.5547 21.6855 12.5489C22.0387 12.5315 22.3881 12.4756 22.7299 12.3811C23.1385 12.2693 23.5299 12.1034 23.8965 11.8894L23.9308 11.8681C23.9537 11.9318 23.9747 11.9916 23.9957 12.0494C24.0186 12.115 24.053 12.1786 24.0969 12.2326C24.1389 12.2847 24.1924 12.3252 24.2535 12.3503C24.3337 12.3811 24.4215 12.3946 24.5074 12.3908H25.9757C26.0406 12.3908 26.1055 12.3811 26.1704 12.3676C26.3175 12.3213 26.4416 12.2172 26.5141 12.0783C26.5447 11.9993 26.558 11.9164 26.558 11.8334V3.3636C26.558 3.28068 26.5428 3.19968 26.5103 3.12255ZM19.4019 6.70178C19.4974 6.42215 19.6444 6.16181 19.8334 5.93425C20.0206 5.71248 20.2535 5.53506 20.5151 5.41163C20.5475 5.39621 20.5819 5.38078 20.6163 5.36728L20.6564 5.35185C20.8874 5.26893 21.1318 5.2265 21.3762 5.22843C21.695 5.2265 22.012 5.29207 22.3041 5.42128L22.3175 5.42706C22.5618 5.55048 22.7776 5.72212 22.9513 5.93425C23.1365 6.16181 23.2778 6.42215 23.3676 6.70178C23.5623 7.30153 23.5623 7.94757 23.3676 8.54732C23.2778 8.82116 23.1365 9.07572 22.9513 9.29557C22.7681 9.50963 22.5408 9.67933 22.285 9.79697C22.0101 9.92232 21.7122 9.98596 21.4124 9.98017C21.105 9.98403 20.7996 9.92232 20.5189 9.79697C20.2611 9.67933 20.0301 9.50963 19.8411 9.29557C19.6502 9.07765 19.5031 8.82309 19.4096 8.54732C19.2053 7.9495 19.2053 7.2996 19.4096 6.70178H19.4058H19.4019Z" fill="white"/>
<path id="Caminho_19858" d="M75.8294 3.11485C75.7969 3.04735 75.7492 2.98757 75.6919 2.94129C75.6346 2.89501 75.5716 2.86029 75.5029 2.83522C75.436 2.81015 75.3654 2.79665 75.2947 2.79665H74.1854C74.1033 2.79473 74.0212 2.80822 73.943 2.83522C73.8857 2.85836 73.8341 2.89501 73.794 2.94322C73.752 2.99529 73.7177 3.05507 73.6967 3.12064L73.6146 3.35398L73.5936 3.42148C73.374 3.28456 73.1449 3.16499 72.9081 3.06471C72.3563 2.82944 71.7663 2.70216 71.1668 2.68866H71.0045C70.5616 2.68866 70.1186 2.74459 69.6909 2.86222C69.2804 2.97407 68.8871 3.13799 68.5186 3.35205C68.1577 3.56033 67.8255 3.81681 67.5315 4.1138C67.2375 4.41078 66.9816 4.7444 66.7716 5.10696C66.6208 5.36923 66.4928 5.645 66.3935 5.93041C66.3515 6.04805 66.3153 6.16954 66.2809 6.29296C65.9277 7.58889 66.1052 8.97353 66.7716 10.1364C67.4112 11.2491 68.4613 12.061 69.6909 12.3927C70.1186 12.5103 70.5616 12.5682 71.0045 12.5663C71.4437 12.5663 71.8809 12.5103 72.3048 12.3927C72.5644 12.3213 72.8184 12.2269 73.0628 12.1131C72.9998 12.3136 72.8909 12.4968 72.7458 12.6473C72.5835 12.8189 72.3945 12.9655 72.1883 13.0792C71.9745 13.1988 71.7434 13.2875 71.5067 13.3454C71.2776 13.4032 71.0427 13.4341 70.8079 13.436C70.6742 13.436 70.5234 13.4283 70.3611 13.4167C70.1912 13.4032 70.0212 13.3762 69.8551 13.3338C69.6833 13.2914 69.5172 13.2335 69.3568 13.1622C69.1983 13.0908 69.0532 12.9944 68.9291 12.8729C68.8126 12.7726 68.6714 12.7109 68.5186 12.6935C68.4499 12.6935 68.3831 12.7128 68.3239 12.7495C68.2532 12.7977 68.1883 12.8536 68.131 12.9192L67.4227 13.9046C67.3367 14.0203 67.2871 14.1592 67.2814 14.3038C67.2795 14.4002 67.3062 14.4967 67.3558 14.5777C67.4055 14.6586 67.4704 14.7281 67.5449 14.784C67.774 14.9865 68.026 15.16 68.299 15.2989C68.5835 15.4474 68.8795 15.5689 69.185 15.6634C69.4866 15.7579 69.794 15.8292 70.1052 15.8774C70.3916 15.9237 70.6799 15.9507 70.9702 15.9526C71.6289 15.9584 72.2838 15.8466 72.9062 15.6229C74.0938 15.2025 75.0408 14.2826 75.5048 13.1024C75.7683 12.4371 75.8962 11.7274 75.8847 11.0119V3.35784C75.8847 3.27491 75.8694 3.19199 75.8332 3.11678L75.8294 3.11485ZM71.8542 9.79891C71.5792 9.92426 71.2814 9.9879 70.9797 9.98405C70.6723 9.9879 70.3668 9.92619 70.0842 9.79891C69.8265 9.68128 69.5955 9.51157 69.4064 9.29751C69.2155 9.0796 69.0685 8.82504 68.9749 8.54927C68.9253 8.4162 68.8871 8.27928 68.8623 8.14043L68.8566 8.10186C68.8317 7.9418 68.8184 7.78174 68.8184 7.61975C68.8165 7.30734 68.8661 6.99685 68.9673 6.7018C69.0628 6.42217 69.2098 6.16183 69.3988 5.93427C69.5859 5.71249 69.8169 5.53508 70.0766 5.41165C70.3573 5.28052 70.6628 5.21495 70.9721 5.22074C71.5678 5.20724 72.1387 5.46951 72.5186 5.93427C72.7038 6.16183 72.8451 6.42217 72.9348 6.7018C73.1296 7.30155 73.1296 7.94759 72.9348 8.54734C72.847 8.82118 72.7038 9.07574 72.5186 9.29559C72.3678 9.47108 72.1883 9.61764 71.9859 9.72949C71.942 9.75456 71.9 9.77577 71.8542 9.79891Z" fill="white"/>
<path id="Caminho_19859" d="M9.586 3.72236L9.23087 5.14171C9.08195 5.67011 8.76309 5.78581 8.42514 5.65275C8.11774 5.54283 7.79698 5.47919 7.47049 5.46376C6.365 5.46376 5.76548 6.20236 5.76548 7.31894V11.5384C5.76548 12.088 5.46762 12.4082 4.90438 12.4082H3.36738C2.93397 12.4506 2.54829 12.1305 2.50629 11.6927C2.50056 11.6406 2.50056 11.5886 2.50629 11.5365V5.83981C2.50629 5.67011 2.43182 5.57561 2.31917 5.57561C2.13206 5.57561 1.90676 5.72603 1.70056 5.74532C1.55163 5.7646 1.32824 5.68746 1.21369 5.21692L0.950201 3.96534C0.818458 3.47358 0.912014 3.22674 1.32252 3.01847C1.76357 2.81019 2.2428 2.70027 2.72968 2.69641C3.70342 2.69641 4.64089 3.07246 5.0533 4.07719C5.64901 3.20745 6.53302 2.69641 7.76834 2.69641C8.22657 2.69641 8.68099 2.76584 9.11631 2.90469C9.43517 3.01847 9.73493 3.17081 9.586 3.7185V3.72236Z" fill="white"/>
<path id="Caminho_19860" d="M17.0608 6.03834C16.9501 5.66229 16.7916 5.3036 16.5873 4.96997C16.3811 4.63442 16.1367 4.32394 15.8579 4.04816C15.5773 3.76854 15.2622 3.52555 14.9205 3.32692C14.5787 3.12443 14.2121 2.96822 13.8302 2.86023C13.4407 2.75031 13.036 2.69438 12.6312 2.69438C12.1959 2.69245 11.7625 2.75224 11.3443 2.87566C10.9796 2.98365 10.6283 3.13407 10.2999 3.32692C10.3171 3.51976 10.298 3.71454 10.2446 3.9016L9.88943 5.31324L9.8837 5.33252C9.81306 5.61601 9.66604 5.87442 9.45984 6.07884C9.24408 6.28519 8.9596 6.39896 8.66365 6.39704C8.50136 6.39704 8.34098 6.36618 8.18824 6.3064L8.10614 6.28133L8.09659 6.31797C7.98967 6.73645 7.93621 7.16649 7.93621 7.59847C7.93048 8.27343 8.06795 8.94454 8.33907 9.56165C8.59874 10.1498 8.96723 10.6821 9.42547 11.1295C10.3744 12.0455 11.6364 12.5527 12.9481 12.5469C13.5438 12.5508 14.1338 12.4331 14.6837 12.2056C15.2279 11.9799 15.7262 11.6579 16.1577 11.2548C16.2322 11.2008 16.2971 11.1353 16.3524 11.062C16.4078 10.9868 16.4364 10.8961 16.4345 10.8036C16.4345 10.7496 16.4269 10.6937 16.4135 10.6416C16.3906 10.576 16.3563 10.5162 16.3085 10.4661L15.52 9.56165C15.4512 9.48837 15.3768 9.4228 15.2966 9.36495C15.1859 9.28202 15.035 9.27624 14.9166 9.34759C14.8441 9.39002 14.7773 9.44016 14.7123 9.49415C14.6073 9.59636 14.487 9.68507 14.3591 9.7545C14.2064 9.84128 14.046 9.91263 13.8799 9.97241C13.7004 10.0361 13.519 10.0862 13.3319 10.1228C13.1505 10.1595 12.9653 10.1788 12.782 10.1788C12.5682 10.1788 12.3563 10.1498 12.1481 10.0958C11.9228 10.0399 11.7109 9.94734 11.5162 9.82006C11.31 9.68507 11.1324 9.50958 10.993 9.30516C10.8326 9.06411 10.7314 8.78834 10.6952 8.50099H16.0565C16.2952 8.50678 16.5338 8.48942 16.7687 8.44507C16.9042 8.42193 17.0283 8.35057 17.1143 8.24065C17.1906 8.12301 17.2307 7.98609 17.2288 7.84531C17.2364 7.6814 17.2403 7.46734 17.2403 7.20699C17.2384 6.80973 17.1792 6.41632 17.0646 6.03834H17.0608ZM10.7715 6.36618C10.8555 6.18683 10.9586 6.01906 11.0808 5.86285C11.2069 5.69893 11.3501 5.55044 11.5085 5.4193C11.6632 5.29203 11.835 5.18596 12.0183 5.10689C12.1959 5.02975 12.3868 4.99118 12.5796 4.99118C12.8183 4.98733 13.057 5.02204 13.2842 5.09532C13.4789 5.16089 13.6584 5.26117 13.8207 5.38845C13.9773 5.5138 14.1185 5.66036 14.2369 5.82428C14.3629 5.99592 14.4756 6.17719 14.5749 6.36618H10.7696H10.7715Z" fill="white"/>
<path id="Caminho_19861" d="M35.654 0.341715C35.6197 0.272291 35.5719 0.21058 35.5127 0.16044C35.4516 0.1103 35.3848 0.0698017 35.3104 0.0428032C35.2454 0.0158047 35.1767 0.00230541 35.1061 0.000376941H33.4297C33.2674 -0.0111939 33.1089 0.0485886 32.9944 0.166225C32.897 0.278076 32.8454 0.422711 32.8493 0.573131V3.15728C32.7843 3.12642 32.7175 3.09557 32.6507 3.06664C32.0473 2.81208 31.4001 2.6848 30.7471 2.69059C30.6421 2.69059 30.5352 2.69059 30.4321 2.70023C29.6683 2.74651 28.9256 2.97022 28.2612 3.35398C27.9003 3.56418 27.5681 3.81874 27.2741 4.11572C26.98 4.41271 26.7261 4.74633 26.5142 5.10888C26.4397 5.24002 26.3691 5.37308 26.3061 5.51193C25.8135 6.58802 25.7123 7.80681 26.0235 8.95232C26.0731 9.13552 26.1342 9.31487 26.2049 9.49229C26.7662 10.9213 27.9633 11.9993 29.4354 12.3966C29.8631 12.5142 30.3061 12.572 30.749 12.5701C31.5815 12.5701 32.4006 12.358 33.1261 11.9492C33.1452 11.9935 33.1643 12.034 33.1796 12.0745C33.2044 12.1381 33.2388 12.1999 33.2788 12.2539C33.3151 12.3021 33.3629 12.3387 33.4163 12.3638C33.4889 12.3927 33.5691 12.4062 33.6473 12.4023H35.108C35.5089 12.4023 35.7113 12.2095 35.7113 11.8238V0.573131C35.7113 0.492136 35.6922 0.413069 35.6559 0.341715H35.654ZM28.6488 8.31592C28.6411 8.28893 28.6354 8.26193 28.6297 8.233C28.5877 8.03437 28.5667 7.83188 28.5686 7.62939C28.5686 7.31505 28.6201 7.00264 28.7251 6.70565C28.8206 6.4241 28.9695 6.16376 29.1605 5.93812C29.3495 5.71828 29.5805 5.53893 29.8421 5.41551C30.1189 5.28437 30.4206 5.21881 30.7242 5.22266C30.9438 5.22266 31.1633 5.25159 31.3753 5.3133C31.4536 5.33837 31.5299 5.36923 31.6025 5.40587C31.8583 5.52929 32.0855 5.70864 32.265 5.92848C32.4483 6.15797 32.5896 6.41831 32.6793 6.69794C32.8741 7.29769 32.8741 7.94373 32.6793 8.54348C32.5915 8.81732 32.4483 9.07188 32.2631 9.29173C32.0798 9.50386 31.8545 9.67549 31.6006 9.79313C31.3256 9.91848 31.0278 9.98212 30.7261 9.97826C30.4187 9.98212 30.1132 9.92041 29.8306 9.79313C29.5729 9.67549 29.3419 9.50579 29.1528 9.29173C28.9619 9.07381 28.8149 8.81925 28.7213 8.54348C28.7137 8.52613 28.708 8.50684 28.7022 8.48949C28.6831 8.43163 28.666 8.37378 28.6507 8.31207L28.6488 8.31592Z" fill="white"/>
<path id="Caminho_19862" d="M49.8704 1.35954C49.8608 1.22454 49.9162 1.09534 50.0193 1.01048C50.153 0.915988 50.3 0.840778 50.4546 0.786781L52.1482 0.190885C52.173 0.1851 52.1978 0.183171 52.2227 0.183171H52.2857C52.4289 0.163887 52.5702 0.225598 52.6542 0.345162C52.721 0.476298 52.7515 0.622862 52.7439 0.769425L52.7363 2.83867H53.7558C53.899 2.83288 54.0384 2.88302 54.1434 2.98138C54.2503 3.09708 54.3038 3.25329 54.2923 3.4095V4.86163C54.3076 5.02941 54.2523 5.19718 54.1434 5.32446C54.0384 5.42474 53.899 5.47681 53.7558 5.47103H52.7344L52.742 11.8195C52.7534 11.9815 52.6923 12.1397 52.5778 12.2515C52.4499 12.3576 52.2876 12.4116 52.1234 12.4019H50.4413C50.0575 12.4019 49.8666 12.2091 49.8685 11.8234L49.8608 5.47488H49.0933C48.7114 5.47488 48.5205 5.27239 48.5205 4.86549V3.4095C48.5205 3.02766 48.7114 2.83674 49.0933 2.83674H49.8608L49.8666 1.35761L49.8704 1.35954Z" fill="white"/>
</g>
</g>
</g>
</g>
<defs>
<clipPath id="clip0_630_969">
<rect width="84.105" height="16.174" fill="white" transform="translate(0.89502)"/>
</clipPath>
</defs>
</svg>
