<svg width="168" height="17" viewBox="0 0 168 17" fill="none" xmlns="http://www.w3.org/2000/svg">
<g id="Group 1">
<g id="Group">
<path id="Vector" d="M47.614 15.1552L42.8216 0.694589C42.7598 0.512786 42.5926 0.38916 42.3998 0.38916H36.244C36.0549 0.38916 35.884 0.50915 35.8222 0.694589L30.9899 15.1552C30.8917 15.4425 31.1062 15.7406 31.4117 15.7406H34.0624C39.2256 15.7406 39.251 10.9592 39.251 10.9592H39.3674C39.3674 10.9592 39.3928 15.7406 44.556 15.7406H47.1958C47.4976 15.7406 47.7121 15.4425 47.6176 15.1552H47.614ZM40.9672 8.38123L39.6292 9.7193C39.451 9.89746 39.1637 9.89746 38.9892 9.7193L37.6511 8.38123C37.473 8.20306 37.473 7.91945 37.6511 7.74128L38.9892 6.40321C39.1674 6.22504 39.4546 6.22504 39.6292 6.40321L40.9672 7.74128C41.1454 7.91945 41.1454 8.20306 40.9672 8.38123Z" fill="#363636"/>
<path id="Vector_2" d="M0.865234 0.83276C0.865234 0.589144 1.06522 0.38916 1.30883 0.38916H9.28636C13.7805 0.38916 15.6458 2.03266 15.6458 4.81788C15.6458 7.60311 13.5405 8.89755 11.0208 9.09389V9.13753C13.5187 9.35569 14.7477 10.1447 15.275 11.7482L16.4349 15.1516C16.533 15.4388 16.3185 15.737 16.0167 15.737H11.0935C10.8971 15.737 10.7226 15.6061 10.6681 15.417L9.86085 12.6463C9.46452 11.2864 8.74095 10.6283 7.29379 10.6283H6.79565C6.55204 10.6283 6.35205 10.8283 6.35205 11.0719V15.2934C6.35205 15.537 6.15207 15.737 5.90845 15.737H1.30883C1.06522 15.737 0.865234 15.537 0.865234 15.2934V0.83276ZM10.2063 6.09051C10.2063 4.9706 9.54815 4.49064 8.12282 4.49064H6.78838C6.54476 4.49064 6.34478 4.69062 6.34478 4.93424V7.27223C6.34478 7.51584 6.54476 7.71583 6.78838 7.71583H8.07918C9.50452 7.71583 10.2063 7.21041 10.2063 6.09414V6.09051Z" fill="#363636"/>
<path id="Vector_3" d="M18.1692 0.38916H29.5173C29.761 0.38916 29.9609 0.589144 29.9609 0.83276V3.89433C29.9609 4.13794 29.761 4.33792 29.5173 4.33792H23.6487C23.4051 4.33792 23.2051 4.53791 23.2051 4.78152V5.99961C23.2051 6.24322 23.4051 6.4432 23.6487 6.4432H28.9465C29.1901 6.4432 29.3901 6.64319 29.3901 6.8868V9.24661C29.3901 9.49023 29.1901 9.69021 28.9465 9.69021H23.6487C23.4051 9.69021 23.2051 9.89019 23.2051 10.1338V11.3519C23.2051 11.5955 23.4051 11.7955 23.6487 11.7955H29.5173C29.761 11.7955 29.9609 11.9955 29.9609 12.2391V15.3007C29.9609 15.5443 29.761 15.7443 29.5173 15.7443H18.1692C17.9256 15.7443 17.7256 15.5443 17.7256 15.3007V0.83276C17.7256 0.589144 17.9256 0.38916 18.1692 0.38916Z" fill="#363636"/>
<path id="Vector_4" d="M48.7051 0.83276C48.7051 0.589144 48.9051 0.38916 49.1487 0.38916H56.0063C61.8603 0.38916 65.0165 3.10894 65.0165 8.06489C65.0165 13.0208 61.8603 15.7406 56.0063 15.7406H49.1487C48.9051 15.7406 48.7051 15.5406 48.7051 15.297V0.83276ZM59.3406 8.06125C59.3406 6.04324 58.3552 5.16695 56.119 5.16695H54.6319C54.3882 5.16695 54.1883 5.36693 54.1883 5.61055V10.512C54.1883 10.7556 54.3882 10.9556 54.6319 10.9556H56.119C58.3552 10.9556 59.3406 10.0793 59.3406 8.06125Z" fill="#363636"/>
<path id="Vector_5" d="M69.354 9.37751L63.969 1.07274C63.7763 0.778219 63.9908 0.38916 64.3399 0.38916H69.0668C69.2195 0.38916 69.3649 0.469153 69.4449 0.600052L71.8774 4.55609C72.052 4.83606 72.4592 4.83606 72.6337 4.55609L75.0663 0.600052C75.1463 0.469153 75.2881 0.38916 75.4444 0.38916H79.9531C80.3022 0.38916 80.5167 0.778219 80.324 1.07274L74.979 9.38114C74.9317 9.45386 74.9099 9.53749 74.9099 9.62112V15.297C74.9099 15.5406 74.7099 15.7406 74.4663 15.7406H69.8703C69.6267 15.7406 69.4267 15.5406 69.4267 15.297V9.62112C69.4267 9.53386 69.4013 9.45023 69.354 9.38114V9.37751Z" fill="#363636"/>
<g id="Group_2">
<path id="Vector_6" d="M91.4537 5.17058H87.6467C87.4031 5.17058 87.2031 4.9706 87.2031 4.72698V0.83276C87.2031 0.589144 87.4031 0.38916 87.6467 0.38916H101.606C101.849 0.38916 102.049 0.589144 102.049 0.83276V4.72698C102.049 4.9706 101.849 5.17058 101.606 5.17058H97.7986C97.555 5.17058 97.355 5.37057 97.355 5.61418V15.297C97.355 15.5406 97.155 15.7406 96.9114 15.7406H92.3372C92.0936 15.7406 91.8936 15.5406 91.8936 15.297V5.61418C91.8936 5.37057 91.6937 5.17058 91.45 5.17058H91.4537Z" fill="#363636"/>
<path id="Vector_7" d="M102.642 8.06124C102.642 3.30163 106.325 0.0800781 111.412 0.0800781C116.499 0.0800781 120.204 3.30163 120.204 8.06124C120.204 12.8208 116.52 16.0424 111.412 16.0424C106.303 16.0424 102.642 12.8427 102.642 8.06124ZM114.524 8.08669C114.524 6.00322 113.23 4.86514 111.412 4.86514C109.594 4.86514 108.321 6.00686 108.321 8.08669C108.321 10.1665 109.616 11.2428 111.412 11.2428C113.208 11.2428 114.524 10.1011 114.524 8.08669Z" fill="#363636"/>
</g>
<path id="Vector_8" d="M165.689 0.552734C166.085 0.552734 166.467 0.650908 166.83 0.850891C167.194 1.05087 167.481 1.33449 167.688 1.70537C167.896 2.07624 168.001 2.4653 168.001 2.86891C168.001 3.27251 167.899 3.6543 167.696 4.02154C167.492 4.38878 167.205 4.67239 166.841 4.87601C166.474 5.07963 166.092 5.18144 165.689 5.18144C165.285 5.18144 164.903 5.07963 164.536 4.87601C164.169 4.67239 163.885 4.38514 163.681 4.02154C163.478 3.6543 163.376 3.27251 163.376 2.86891C163.376 2.4653 163.481 2.07624 163.689 1.70537C163.896 1.33449 164.183 1.05087 164.547 0.850891C164.91 0.650908 165.292 0.552734 165.689 0.552734ZM165.692 1.00724C165.372 1.00724 165.07 1.08724 164.776 1.24722C164.485 1.40721 164.252 1.63628 164.085 1.93444C163.918 2.2326 163.834 2.5453 163.834 2.87254C163.834 3.19979 163.918 3.50522 164.081 3.79974C164.245 4.09426 164.474 4.32333 164.769 4.48695C165.063 4.65058 165.372 4.73421 165.692 4.73421C166.012 4.73421 166.325 4.65058 166.619 4.48695C166.914 4.32333 167.143 4.09062 167.307 3.79974C167.47 3.50885 167.554 3.19615 167.554 2.87254C167.554 2.54893 167.47 2.2326 167.303 1.93444C167.136 1.63628 166.903 1.40721 166.612 1.24722C166.318 1.08724 166.012 1.00724 165.696 1.00724H165.692ZM164.645 4.10517V1.64719H165.143C165.612 1.64719 165.874 1.64719 165.928 1.65446C166.092 1.66901 166.223 1.70173 166.314 1.75263C166.405 1.80354 166.481 1.88353 166.543 1.98898C166.605 2.09443 166.634 2.21078 166.634 2.34168C166.634 2.51984 166.576 2.66892 166.459 2.79619C166.343 2.92345 166.179 2.9998 165.972 3.02889C166.048 3.05798 166.103 3.08707 166.143 3.11979C166.183 3.15252 166.238 3.21433 166.31 3.30887C166.328 3.33432 166.39 3.4325 166.492 3.60703L166.783 4.10153H166.168L165.961 3.70156C165.823 3.4325 165.707 3.26524 165.616 3.19615C165.525 3.12707 165.412 3.09071 165.27 3.09071H165.139V4.10153H164.641L164.645 4.10517ZM165.143 2.70892H165.347C165.634 2.70892 165.812 2.69801 165.881 2.6762C165.95 2.65438 166.005 2.61438 166.045 2.55984C166.085 2.5053 166.107 2.43985 166.107 2.37077C166.107 2.30168 166.088 2.23987 166.048 2.18896C166.008 2.13442 165.954 2.09806 165.881 2.07261C165.808 2.05079 165.63 2.03625 165.347 2.03625H165.143V2.70528V2.70892Z" fill="#363636"/>
<path id="Vector_9" d="M136.691 4.86128C138.367 4.86128 140.174 5.04672 142.25 5.47214C142.527 5.52668 142.785 5.31943 142.785 5.03945V1.23976C142.785 1.03614 142.647 0.857978 142.447 0.810709C140.323 0.298024 138.407 0.0834961 136.429 0.0834961C130.44 0.0834961 127.153 3.06507 127.153 8.50098C127.153 13.2388 129.389 15.824 133.138 16.0422C136.978 16.264 138.352 15.4604 138.916 14.8423V15.2386C138.92 15.4749 139.112 15.6677 139.352 15.6677H142.352C142.592 15.6677 142.785 15.4749 142.785 15.235V6.9302C142.785 6.70477 142.603 6.5266 142.381 6.5266H134.934C134.709 6.5266 134.531 6.7084 134.531 6.9302V9.35182C134.531 9.57726 134.713 9.75542 134.934 9.75542H137.705V9.92268C137.705 11.3698 137.025 11.6534 135.458 11.6534C132.916 11.6534 132.836 10.1372 132.836 8.16646C132.836 5.99573 133.975 4.85401 136.694 4.85401L136.691 4.86128Z" fill="#363636"/>
<path id="Vector_10" d="M145.177 8.08321C145.177 3.3236 148.86 0.102051 153.947 0.102051C159.034 0.102051 162.739 3.3236 162.739 8.08321C162.739 12.8428 159.056 16.0644 153.947 16.0644C148.838 16.0644 145.177 12.8646 145.177 8.08321ZM157.063 8.10503C157.063 6.02156 155.769 4.88347 153.951 4.88347C152.133 4.88347 150.86 6.0252 150.86 8.10503C150.86 10.1849 152.154 11.2611 153.951 11.2611C155.747 11.2611 157.063 10.1194 157.063 8.10503Z" fill="#363636"/>
</g>
</g>
</svg>
