<svg width="17" height="17" viewBox="0 0 17 17" fill="none" xmlns="http://www.w3.org/2000/svg">
<g id="vuesax/outline/setting-4">
<g id="setting-4">
<path id="Vector" d="M14.8706 5.38049H10.8354C10.5597 5.38049 10.3311 5.15183 10.3311 4.8761C10.3311 4.60036 10.5597 4.3717 10.8354 4.3717H14.8706C15.1463 4.3717 15.375 4.60036 15.375 4.8761C15.375 5.15183 15.1463 5.38049 14.8706 5.38049Z" fill="#888888"/>
<path id="Vector_2" d="M4.11027 5.38049H1.42017C1.14443 5.38049 0.915771 5.15183 0.915771 4.8761C0.915771 4.60036 1.14443 4.3717 1.42017 4.3717H4.11027C4.38601 4.3717 4.61466 4.60036 4.61466 4.8761C4.61466 5.15183 4.38601 5.38049 4.11027 5.38049Z" fill="#888888"/>
<path id="Vector_3" d="M6.80037 7.73429C5.22666 7.73429 3.94214 6.44977 3.94214 4.87606C3.94214 3.30235 5.22666 2.01782 6.80037 2.01782C8.37409 2.01782 9.65861 3.30235 9.65861 4.87606C9.65861 6.44977 8.37409 7.73429 6.80037 7.73429ZM6.80037 3.02661C5.77813 3.02661 4.95093 3.85382 4.95093 4.87606C4.95093 5.8983 5.77813 6.7255 6.80037 6.7255C7.82261 6.7255 8.64982 5.8983 8.64982 4.87606C8.64982 3.85382 7.82261 3.02661 6.80037 3.02661Z" fill="#888888"/>
<path id="Vector_4" d="M14.8705 12.7783H12.1804C11.9047 12.7783 11.676 12.5497 11.676 12.2739C11.676 11.9982 11.9047 11.7695 12.1804 11.7695H14.8705C15.1463 11.7695 15.3749 11.9982 15.3749 12.2739C15.3749 12.5497 15.1463 12.7783 14.8705 12.7783Z" fill="#888888"/>
<path id="Vector_5" d="M5.45532 12.7783H1.42017C1.14443 12.7783 0.915771 12.5497 0.915771 12.2739C0.915771 11.9982 1.14443 11.7695 1.42017 11.7695H5.45532C5.73106 11.7695 5.95972 11.9982 5.95972 12.2739C5.95972 12.5497 5.73106 12.7783 5.45532 12.7783Z" fill="#888888"/>
<path id="Vector_6" d="M9.49032 15.1321C7.9166 15.1321 6.63208 13.8476 6.63208 12.2739C6.63208 10.7002 7.9166 9.41565 9.49032 9.41565C11.064 9.41565 12.3486 10.7002 12.3486 12.2739C12.3486 13.8476 11.064 15.1321 9.49032 15.1321ZM9.49032 10.4244C8.46808 10.4244 7.64087 11.2516 7.64087 12.2739C7.64087 13.2961 8.46808 14.1233 9.49032 14.1233C10.5126 14.1233 11.3398 13.2961 11.3398 12.2739C11.3398 11.2516 10.5126 10.4244 9.49032 10.4244Z" fill="#888888"/>
</g>
</g>
</svg>
