<svg width="18" height="18" viewBox="0 0 18 18" fill="none" xmlns="http://www.w3.org/2000/svg">
<g id="vuesax/outline/sms-search">
<g id="sms-search">
<path id="Vector" d="M9 15.5522H5.25C2.5125 15.5522 0.9375 14.0647 0.9375 11.4792V6.52092C0.9375 3.9355 2.5125 2.448 5.25 2.448H12.75C15.4875 2.448 17.0625 3.9355 17.0625 6.52092V8.64592C17.0625 8.93633 16.8075 9.17717 16.5 9.17717C16.1925 9.17717 15.9375 8.93633 15.9375 8.64592V6.52092C15.9375 4.49508 14.895 3.5105 12.75 3.5105H5.25C3.105 3.5105 2.0625 4.49508 2.0625 6.52092V11.4792C2.0625 13.5051 3.105 14.4897 5.25 14.4897H9C9.3075 14.4897 9.5625 14.7305 9.5625 15.0209C9.5625 15.3113 9.3075 15.5522 9 15.5522Z" fill="#A1A1A1"/>
<path id="Vector_2" d="M9.00008 9.61629C8.37008 9.61629 7.73258 9.43211 7.24508 9.0567L4.89758 7.28586C4.65758 7.1017 4.61258 6.76879 4.80758 6.54212C5.00258 6.31546 5.35507 6.28004 5.59507 6.45713L7.94257 8.22796C8.51257 8.66004 9.48007 8.66004 10.0501 8.22796L12.3976 6.45713C12.6376 6.27296 12.9901 6.30837 13.1851 6.54212C13.3801 6.76879 13.3426 7.10878 13.0951 7.28586L10.7476 9.0567C10.2676 9.43211 9.63008 9.61629 9.00008 9.61629Z" fill="#A1A1A1"/>
<path id="Vector_3" d="M13.65 16.1896C12.015 16.1896 10.6875 14.9359 10.6875 13.3917C10.6875 11.8476 12.015 10.5938 13.65 10.5938C15.285 10.5938 16.6125 11.8476 16.6125 13.3917C16.6125 14.9359 15.285 16.1896 13.65 16.1896ZM13.65 11.6563C12.6375 11.6563 11.8125 12.4355 11.8125 13.3917C11.8125 14.348 12.6375 15.1271 13.65 15.1271C14.6625 15.1271 15.4875 14.348 15.4875 13.3917C15.4875 12.4355 14.6625 11.6563 13.65 11.6563Z" fill="#A1A1A1"/>
<path id="Vector_4" d="M16.5001 16.6146C16.3576 16.6146 16.2151 16.565 16.1026 16.4588L15.3526 15.7504C15.1351 15.545 15.1351 15.205 15.3526 14.9996C15.5701 14.7942 15.9301 14.7942 16.1476 14.9996L16.8976 15.7079C17.1151 15.9134 17.1151 16.2534 16.8976 16.4588C16.7851 16.565 16.6426 16.6146 16.5001 16.6146Z" fill="#A1A1A1"/>
</g>
</g>
</svg>
