<svg width="16" height="17" viewBox="0 0 16 17" fill="none" xmlns="http://www.w3.org/2000/svg">
<g id="star" clip-path="url(#clip0_6956_2814)">
<path id="Icon" fill-rule="evenodd" clip-rule="evenodd" d="M6.60688 1.89821C7.10979 0.641003 8.88944 0.641032 9.39231 1.89827L10.6931 5.15043L14.222 5.37099C15.5421 5.4535 16.1171 7.08003 15.142 7.9738L12.4552 10.4368L13.3238 13.6943C13.6671 14.9816 12.287 16.0441 11.1302 15.3831L7.9996 13.5941L4.86867 15.3832C3.71193 16.0441 2.33185 14.9816 2.67513 13.6943L3.5438 10.4368L0.856909 7.9738C-0.11811 7.08003 0.456819 5.4535 1.77693 5.37099L5.3059 5.15043L6.60688 1.89821ZM7.99955 3.80161L7.04539 6.18685C6.83021 6.72476 6.32449 7.09067 5.74626 7.12681L3.07485 7.29377L5.11856 9.16718C5.53034 9.54464 5.69826 10.1197 5.55432 10.6594L4.91615 13.0525L7.25541 11.7159C7.71656 11.4524 8.28268 11.4524 8.74382 11.7159L11.0828 13.0525L10.4446 10.6594C10.3007 10.1197 10.4686 9.54464 10.8804 9.16718L12.9241 7.29377L10.2527 7.12681C9.67446 7.09067 9.16872 6.72473 8.95355 6.18679L7.99955 3.80161Z" fill="#666666"/>
</g>
<defs>
<clipPath id="clip0_6956_2814">
<rect width="16" height="16" fill="white" transform="translate(0 0.442383)"/>
</clipPath>
</defs>
</svg>
