<svg width="93" height="91" viewBox="0 0 93 91" fill="none" xmlns="http://www.w3.org/2000/svg">
<rect x="0.0546875" y="0.945435" width="92" height="90" rx="45" fill="#F5F5F5"/>
<path d="M41.8563 47.7757V52.946C41.8563 53.7379 42.3023 54.7304 43.8702 54.7304C43.9045 54.7304 43.9423 54.7304 43.98 54.7304C44.1618 55.8391 44.5255 56.8246 44.5427 56.8703C44.5427 56.8703 44.5427 56.8809 44.5427 56.8844C44.7588 57.5249 45.0539 58.1303 45.4141 58.6899C45.3832 58.8131 45.3146 58.9257 45.2117 59.0032C44.4912 59.5698 43.16 59.7564 42.0416 59.7564C38.7103 59.7564 36.3087 58.1057 36.3087 53.8083V47.7828C36.3087 47.4554 36.0479 47.1879 35.7289 47.1879H34.8952C34.8403 47.1879 34.7922 47.2231 34.7717 47.2724L30.0268 59.4255C29.9479 59.6261 29.7592 59.7528 29.5465 59.7528H25.0864C24.8771 59.7528 24.6885 59.6261 24.6061 59.4255L18.0944 42.7533C17.9537 42.4048 18.2042 42.0177 18.5713 42.0177H23.0725C23.2852 42.0177 23.4774 42.155 23.5563 42.3591L26.8499 51.4889C27.0214 51.9464 27.6493 51.9464 27.8174 51.4889L31.0801 42.3591C31.159 42.1514 31.3477 42.0177 31.5673 42.0177H35.7357C36.0548 42.0177 36.3121 41.7537 36.3121 41.4264V38.572C36.3121 38.2447 36.5763 37.9737 36.8953 37.9737H41.2765C41.5956 37.9737 41.8563 38.2412 41.8563 38.5685V41.4581C41.8563 41.7643 42.0999 42.0177 42.4018 42.0177H45.6268C45.3352 42.8131 45.1808 43.6824 45.1808 44.6046C45.1808 45.5795 45.3455 46.4348 45.6268 47.1844H42.4327C42.1136 47.1844 41.8563 47.4484 41.8563 47.7757Z" fill="#1A1A1A"/>
<path d="M73.5327 37.9704H69.0349C68.7467 37.9704 68.5134 38.2132 68.5134 38.5054V43.9537H68.4174C68.2904 43.658 66.7225 42.0179 63.8063 42.0179C62.904 42.0179 61.9708 42.1904 61.0788 42.5388L60.8146 42.6514C60.7117 42.6972 60.6088 42.7394 60.5127 42.7887C60.3995 42.8415 60.2863 42.9013 60.1799 42.9612C60.0736 43.014 59.9741 43.0738 59.8746 43.1371C59.7785 43.1935 59.6859 43.2498 59.5933 43.3166C59.5727 43.3307 59.5487 43.3413 59.5281 43.3624C59.4492 43.4117 59.3737 43.468 59.2948 43.5243C59.0066 43.7355 58.7321 43.9642 58.4748 44.2176C58.1901 44.4957 57.9225 44.8019 57.6823 45.1257C57.6 45.2348 57.5176 45.3474 57.4456 45.4636C57.1128 45.9634 56.8246 46.5124 56.5947 47.1178C58.8659 48.0997 60.427 49.1732 61.3945 50.4719C61.5832 48.325 63.1888 47.0544 64.9934 47.0544C66.9764 47.0544 68.6404 48.4658 68.6404 50.8978C68.6404 53.3298 66.9764 54.7377 64.9934 54.7377C64.1082 54.7377 63.2677 54.4315 62.6227 53.8648C62.6433 54.1041 62.6536 54.3505 62.6536 54.6004C62.6536 56.3708 62.1527 57.9686 61.1886 59.285C62.0463 59.6017 62.9383 59.7601 63.8063 59.7601C66.7225 59.7601 68.2904 58.12 68.4174 57.8243H68.5134V58.8978C68.5134 59.1935 68.7467 59.4328 69.0349 59.4328H73.5327C73.8209 59.4328 74.0542 59.1899 74.0542 58.8978V38.5159C74.0542 38.2203 73.8209 37.981 73.5327 37.981V37.9704Z" fill="#1A1A1A"/>
<path d="M61.7752 54.5898C61.7752 56.7402 60.969 58.4015 59.7408 59.5946C58.1077 61.1855 55.7233 61.9457 53.5138 61.9457C49.6782 61.9457 46.4189 59.7178 45.3656 56.5607C45.3656 56.5537 45.3656 56.5502 45.3587 56.5431C45.3107 56.4059 44.9539 55.3993 44.8064 54.361C44.7686 54.1076 44.9676 53.8823 45.2146 53.8823H49.4757C49.6164 53.8823 49.7502 53.9598 49.8291 54.0829L49.9629 54.3047L50.0075 54.3715C50.6559 55.5788 51.6612 56.7578 53.4177 56.7578C54.5362 56.7578 55.562 56.2827 55.8399 55.1635C55.8879 54.9699 55.9154 54.7587 55.9154 54.5229C55.9154 53.8858 55.7473 53.4318 55.2292 53.0024C54.8381 52.6857 54.2515 52.3795 53.3869 52.0275L51.9768 51.4679C49.0331 50.2536 46.0552 48.5748 46.0552 44.6012C46.0552 40.6276 49.4483 37.9668 53.4486 37.9668C56.6187 37.9668 58.835 39.526 60.1868 41.3843C60.3377 41.5955 60.2691 41.9017 60.0358 42.0143C59.2433 42.4085 58.5091 42.9259 57.871 43.5488C57.5931 43.8234 57.3014 44.1437 57.0167 44.5167L56.8863 44.6892C56.7765 44.8265 56.5707 44.8194 56.4712 44.6716C56.4335 44.6188 56.3923 44.566 56.3614 44.5203C56.3443 44.5027 56.334 44.4815 56.3168 44.4675C56.2894 44.4287 56.2619 44.3971 56.2379 44.3724C56.2002 44.3232 56.1761 44.2985 56.1761 44.2985C55.4008 43.4045 54.5636 43.0526 53.6751 43.0526C52.4914 43.0526 51.5925 43.5805 51.5925 44.6927C51.5925 45.548 52.0729 46.2378 54.3784 47.1599L55.49 47.6104L55.9154 47.7829C60.1113 49.5216 61.7752 51.4609 61.7752 54.5827V54.5898Z" fill="#676767"/>
<path d="M34.0793 30.843H34.515C34.515 30.843 34.5424 30.8536 34.5493 30.8677L35.5065 33.0709C35.5202 33.1026 35.5614 33.1026 35.5751 33.0709L36.5357 30.8677C36.5357 30.8677 36.5563 30.843 36.57 30.843H37.0058C37.0263 30.843 37.0435 30.8606 37.0435 30.8817V33.7009C37.0435 33.722 37.0263 33.7396 37.0058 33.7396H36.6318C36.6112 33.7396 36.5941 33.722 36.5941 33.7009V31.7405H36.5735L35.7158 33.7185C35.7158 33.7185 35.6952 33.7431 35.6814 33.7431H35.3967C35.3967 33.7431 35.3692 33.7326 35.3624 33.7185L34.5081 31.744H34.4875V33.7044C34.4875 33.7256 34.4704 33.7431 34.4498 33.7431H34.0758C34.0552 33.7431 34.0381 33.7256 34.0381 33.7044V30.8853C34.0381 30.8641 34.0552 30.8465 34.0758 30.8465L34.0793 30.843Z" fill="black"/>
<path d="M39.1051 30.8429H40.5873C40.6078 30.8429 40.625 30.8605 40.625 30.8816V31.2336C40.625 31.2547 40.6078 31.2723 40.5873 31.2723H39.5546C39.534 31.2723 39.5168 31.2899 39.5168 31.311V32.0361C39.5168 32.0572 39.534 32.0748 39.5546 32.0748H40.4157C40.4363 32.0748 40.4535 32.0924 40.4535 32.1135V32.4514C40.4535 32.4725 40.4363 32.4901 40.4157 32.4901H39.5546C39.534 32.4901 39.5168 32.5077 39.5168 32.5288V33.2714C39.5168 33.2926 39.534 33.3102 39.5546 33.3102H40.625C40.6456 33.3102 40.6627 33.3277 40.6627 33.3489V33.7008C40.6627 33.7219 40.6456 33.7395 40.625 33.7395H39.1051C39.0846 33.7395 39.0674 33.7219 39.0674 33.7008V30.8816C39.0674 30.8605 39.0846 30.8429 39.1051 30.8429ZM40.1172 29.9454H40.3917C40.4226 29.9454 40.4397 29.9806 40.4226 30.0053L40.076 30.5649C40.076 30.5649 40.0555 30.5825 40.0452 30.5825H39.781C39.7501 30.5825 39.733 30.5508 39.7501 30.5226L40.0864 29.963C40.0864 29.963 40.1069 29.9454 40.1172 29.9454Z" fill="black"/>
<path d="M43.2017 31.2688H42.567C42.5464 31.2688 42.5293 31.2512 42.5293 31.2301V30.8781C42.5293 30.857 42.5464 30.8394 42.567 30.8394H44.3648C44.3854 30.8394 44.4025 30.857 44.4025 30.8781V31.2301C44.4025 31.2512 44.3854 31.2688 44.3648 31.2688H43.7301C43.7095 31.2688 43.6924 31.2864 43.6924 31.3075V33.6973C43.6924 33.7184 43.6752 33.736 43.6546 33.736H43.2806C43.2601 33.736 43.2429 33.7184 43.2429 33.6973V31.3075C43.2429 31.2864 43.2257 31.2688 43.2052 31.2688H43.2017Z" fill="black"/>
<path d="M46.0869 32.2894C46.0869 31.3989 46.7525 30.8006 47.5313 30.8006C48.3101 30.8006 48.9757 31.3989 48.9757 32.2894C48.9757 33.1798 48.3067 33.7782 47.5313 33.7782C46.7559 33.7782 46.0869 33.1798 46.0869 32.2894ZM47.5313 33.3382C48.0562 33.3382 48.5125 32.9264 48.5125 32.2894C48.5125 31.6523 48.0562 31.2405 47.5313 31.2405C47.0064 31.2405 46.5501 31.6523 46.5501 32.2894C46.5501 32.9264 47.0064 33.3382 47.5313 33.3382Z" fill="black"/>
<path d="M50.9658 30.8817C50.9658 30.8606 50.983 30.843 51.0036 30.843H51.9059C52.7087 30.843 53.2816 31.4343 53.2816 32.2931C53.2816 33.1519 52.7087 33.7431 51.9059 33.7431H51.0036C50.983 33.7431 50.9658 33.7256 50.9658 33.7044V30.8853V30.8817ZM51.8887 33.3032C52.4891 33.3032 52.815 32.8949 52.815 32.2931C52.815 31.6912 52.4891 31.2794 51.8887 31.2794H51.453C51.4324 31.2794 51.4153 31.297 51.4153 31.3182V33.2645C51.4153 33.2856 51.4324 33.3032 51.453 33.3032H51.8887Z" fill="black"/>
<path d="M55.1865 32.2894C55.1865 31.3989 55.8521 30.8006 56.6309 30.8006C57.4097 30.8006 58.0753 31.3989 58.0753 32.2894C58.0753 33.1798 57.4063 33.7782 56.6309 33.7782C55.8555 33.7782 55.1865 33.1798 55.1865 32.2894ZM56.6309 33.3382C57.1558 33.3382 57.6121 32.9264 57.6121 32.2894C57.6121 31.6523 57.1558 31.2405 56.6309 31.2405C56.106 31.2405 55.6497 31.6523 55.6497 32.2894C55.6497 32.9264 56.106 33.3382 56.6309 33.3382Z" fill="black"/>
</svg>
